<mxfile host="Electron" agent="Mozilla/5.0 (Windows NT 10.0; Win64; x64) AppleWebKit/537.36 (KHTML, like Gecko) draw.io/28.1.2 Chrome/138.0.7204.243 Electron/37.4.0 Safari/537.36" version="28.1.2" pages="4">
  <diagram id="HTXtK48jN9DxzCT77MaK" name="Process Flow">
    <mxGraphModel dx="4392" dy="2103" grid="1" gridSize="10" guides="1" tooltips="1" connect="1" arrows="1" fold="1" page="1" pageScale="1" pageWidth="827" pageHeight="1169" math="0" shadow="0">
      <root>
        <mxCell id="0" />
        <mxCell id="1" parent="0" />
        <mxCell id="FR-2kD18pk8Cibqxm6oS-1" value="Dev" style="rounded=0;whiteSpace=wrap;html=1;fontSize=33;fillColor=#FFFF33;fontStyle=1" parent="1" vertex="1">
          <mxGeometry x="-490" y="525" width="125" height="130" as="geometry" />
        </mxCell>
        <mxCell id="FR-2kD18pk8Cibqxm6oS-2" value="Create Business manager" style="rounded=0;whiteSpace=wrap;html=1;fillColor=#1ba1e2;fontColor=#000000;strokeColor=#006EAF;textShadow=0;fontSize=33;fontStyle=1" parent="1" vertex="1">
          <mxGeometry x="-370" y="525" width="240" height="130" as="geometry" />
        </mxCell>
        <mxCell id="FR-2kD18pk8Cibqxm6oS-3" value="Business Manager Created" style="rounded=0;whiteSpace=wrap;html=1;fontSize=33;fillColor=#FF8000;fontColor=#000000;strokeColor=#C73500;fontStyle=1" parent="1" vertex="1">
          <mxGeometry x="10" y="515" width="300" height="150" as="geometry" />
        </mxCell>
        <mxCell id="FR-2kD18pk8Cibqxm6oS-4" value="User Management system" style="html=1;aspect=fixed;fillColor=#FF99FF;fontSize=22;fontStyle=1;whiteSpace=wrap;" parent="1" vertex="1">
          <mxGeometry x="-140" y="510" width="160" height="160" as="geometry" />
        </mxCell>
        <mxCell id="Wwy4Vul7Rh1LpMJ4ICqL-1" value="Warehouse Created" style="rounded=0;whiteSpace=wrap;html=1;fontSize=33;fillColor=#FF8000;fontColor=#000000;strokeColor=#C73500;fontStyle=1" parent="1" vertex="1">
          <mxGeometry x="1000" y="320" width="300" height="150" as="geometry" />
        </mxCell>
        <mxCell id="Wwy4Vul7Rh1LpMJ4ICqL-2" value="Business Manager" style="rounded=0;whiteSpace=wrap;html=1;fontSize=24;fillColor=#FFFF33;fontStyle=1" parent="1" vertex="1">
          <mxGeometry x="500" y="371" width="140" height="159" as="geometry" />
        </mxCell>
        <mxCell id="Wwy4Vul7Rh1LpMJ4ICqL-3" value="Create Warehouse" style="rounded=0;whiteSpace=wrap;html=1;fillColor=#1ba1e2;fontColor=#000000;strokeColor=#006EAF;textShadow=0;fontSize=33;fontStyle=1" parent="1" vertex="1">
          <mxGeometry x="630" y="371" width="240" height="130" as="geometry" />
        </mxCell>
        <mxCell id="Wwy4Vul7Rh1LpMJ4ICqL-4" value="Warehouse Management System" style="whiteSpace=wrap;html=1;aspect=fixed;fillColor=#FF99FF;fontSize=22;fontStyle=1" parent="1" vertex="1">
          <mxGeometry x="870" y="345.5" width="149" height="149" as="geometry" />
        </mxCell>
        <mxCell id="Wwy4Vul7Rh1LpMJ4ICqL-5" value="Warehouse Id, Warehouse Details" style="rounded=0;whiteSpace=wrap;html=1;fillColor=#E6FFCC;fontColor=#000000;strokeColor=#006EAF;textShadow=0;fontSize=33;fontStyle=1" parent="1" vertex="1">
          <mxGeometry x="1290" y="340" width="310" height="130" as="geometry" />
        </mxCell>
        <mxCell id="fDL0flbmjOAfAaWhJNUC-1" value="Business Manager" style="rounded=0;whiteSpace=wrap;html=1;fontSize=24;fillColor=#FFFF33;fontStyle=1" parent="1" vertex="1">
          <mxGeometry x="490" y="729" width="125" height="130" as="geometry" />
        </mxCell>
        <mxCell id="fDL0flbmjOAfAaWhJNUC-2" value="Create Product command" style="rounded=0;whiteSpace=wrap;html=1;fillColor=#1ba1e2;fontColor=#000000;strokeColor=#006EAF;textShadow=0;fontSize=33;fontStyle=1" parent="1" vertex="1">
          <mxGeometry x="615" y="729" width="240" height="130" as="geometry" />
        </mxCell>
        <mxCell id="fDL0flbmjOAfAaWhJNUC-3" value="Product Management System" style="whiteSpace=wrap;html=1;aspect=fixed;fillColor=#FF99FF;fontSize=22;fontStyle=1" parent="1" vertex="1">
          <mxGeometry x="840" y="719" width="150" height="150" as="geometry" />
        </mxCell>
        <mxCell id="fDL0flbmjOAfAaWhJNUC-4" value="Product Created" style="rounded=0;whiteSpace=wrap;html=1;fontSize=33;fillColor=#FF8000;fontColor=#000000;strokeColor=#C73500;fontStyle=1" parent="1" vertex="1">
          <mxGeometry x="990" y="729" width="300" height="150" as="geometry" />
        </mxCell>
        <mxCell id="fDL0flbmjOAfAaWhJNUC-5" value="Product Details&lt;br&gt;Colors&lt;br&gt;Sizes&lt;br&gt;General Assortment for product&lt;br&gt;General Assortment for each color" style="rounded=0;whiteSpace=wrap;html=1;fillColor=#E6FFCC;fontColor=#000000;strokeColor=#006EAF;textShadow=0;fontSize=33;fontStyle=1" parent="1" vertex="1">
          <mxGeometry x="1280" y="710" width="610" height="230" as="geometry" />
        </mxCell>
        <mxCell id="risV9IbANkyXp79_Rr1a-1" value="Room Created" style="rounded=0;whiteSpace=wrap;html=1;fontSize=33;fillColor=#FF8000;fontColor=#000000;strokeColor=#C73500;fontStyle=1" parent="1" vertex="1">
          <mxGeometry x="3510" y="300" width="300" height="150" as="geometry" />
        </mxCell>
        <mxCell id="risV9IbANkyXp79_Rr1a-2" value="Facility Manager" style="rounded=0;whiteSpace=wrap;html=1;fontSize=24;fillColor=#FFFF33;fontStyle=1" parent="1" vertex="1">
          <mxGeometry x="3000" y="300" width="140" height="159" as="geometry" />
        </mxCell>
        <mxCell id="risV9IbANkyXp79_Rr1a-3" value="Warehouse Management System" style="whiteSpace=wrap;html=1;aspect=fixed;fillColor=#FF99FF;fontSize=22;fontStyle=1" parent="1" vertex="1">
          <mxGeometry x="3370" y="310.5" width="149" height="149" as="geometry" />
        </mxCell>
        <mxCell id="risV9IbANkyXp79_Rr1a-4" value="Create Room Command" style="rounded=0;whiteSpace=wrap;html=1;fillColor=#1ba1e2;fontColor=#000000;strokeColor=#006EAF;textShadow=0;fontSize=33;fontStyle=1" parent="1" vertex="1">
          <mxGeometry x="3140" y="320" width="240" height="130" as="geometry" />
        </mxCell>
        <mxCell id="risV9IbANkyXp79_Rr1a-5" value="Room Id, Room Details" style="rounded=0;whiteSpace=wrap;html=1;fillColor=#E6FFCC;fontColor=#000000;strokeColor=#006EAF;textShadow=0;fontSize=33;fontStyle=1" parent="1" vertex="1">
          <mxGeometry x="3800" y="310" width="240" height="130" as="geometry" />
        </mxCell>
        <mxCell id="mt0N4Z7I5Zq75XAcH-X8-1" value="Business Manager" style="rounded=0;whiteSpace=wrap;html=1;fontSize=24;fillColor=#FFFF33;fontStyle=1" parent="1" vertex="1">
          <mxGeometry x="1700" y="293.5" width="125" height="130" as="geometry" />
        </mxCell>
        <mxCell id="mt0N4Z7I5Zq75XAcH-X8-2" value="Create Facility Manager command" style="rounded=0;whiteSpace=wrap;html=1;fillColor=#1ba1e2;fontColor=#000000;strokeColor=#006EAF;textShadow=0;fontSize=33;fontStyle=1" parent="1" vertex="1">
          <mxGeometry x="1820" y="293.5" width="240" height="130" as="geometry" />
        </mxCell>
        <mxCell id="mt0N4Z7I5Zq75XAcH-X8-3" value="User Management system" style="html=1;aspect=fixed;fillColor=#FF99FF;fontSize=22;fontStyle=1;whiteSpace=wrap;" parent="1" vertex="1">
          <mxGeometry x="2050" y="290" width="160" height="160" as="geometry" />
        </mxCell>
        <mxCell id="mt0N4Z7I5Zq75XAcH-X8-4" value="Facility Manager Created" style="rounded=0;whiteSpace=wrap;html=1;fontSize=33;fillColor=#FF8000;fontColor=#000000;strokeColor=#C73500;fontStyle=1" parent="1" vertex="1">
          <mxGeometry x="2200" y="300" width="300" height="150" as="geometry" />
        </mxCell>
        <mxCell id="IIkC0yiLzsCw7wBAbNBG-1" value="Facility Manager" style="rounded=0;whiteSpace=wrap;html=1;fontSize=24;fillColor=#FFFF33;fontStyle=1" parent="1" vertex="1">
          <mxGeometry x="4080" y="330" width="125" height="130" as="geometry" />
        </mxCell>
        <mxCell id="IIkC0yiLzsCw7wBAbNBG-2" value="Create Facility Worker command" style="rounded=0;whiteSpace=wrap;html=1;fillColor=#1ba1e2;fontColor=#000000;strokeColor=#006EAF;textShadow=0;fontSize=33;fontStyle=1" parent="1" vertex="1">
          <mxGeometry x="4200" y="329" width="240" height="130" as="geometry" />
        </mxCell>
        <mxCell id="IIkC0yiLzsCw7wBAbNBG-3" value="User Management system" style="html=1;aspect=fixed;fillColor=#FF99FF;fontSize=22;fontStyle=1;whiteSpace=wrap;" parent="1" vertex="1">
          <mxGeometry x="4440" y="314" width="160" height="160" as="geometry" />
        </mxCell>
        <mxCell id="IIkC0yiLzsCw7wBAbNBG-4" value="Facility Worker Created" style="rounded=0;whiteSpace=wrap;html=1;fontSize=33;fillColor=#FF8000;fontColor=#000000;strokeColor=#C73500;fontStyle=1" parent="1" vertex="1">
          <mxGeometry x="4600" y="324" width="300" height="150" as="geometry" />
        </mxCell>
        <mxCell id="yZaqSAbRPUywFxxPNGX3-1" value="What to return and how to create business manager" style="strokeWidth=2;html=1;shape=mxgraph.flowchart.terminator;whiteSpace=wrap;fontSize=19;fillColor=#e51400;fontColor=#000000;strokeColor=#B20000;fontStyle=1" parent="1" vertex="1">
          <mxGeometry x="170" y="620" width="220" height="110" as="geometry" />
        </mxCell>
        <mxCell id="yZaqSAbRPUywFxxPNGX3-3" value="Facility manager Id, Facility Manager Details" style="rounded=0;whiteSpace=wrap;html=1;fillColor=#E6FFCC;fontColor=#000000;strokeColor=#006EAF;textShadow=0;fontSize=33;fontStyle=1" parent="1" vertex="1">
          <mxGeometry x="2481" y="305" width="310" height="130" as="geometry" />
        </mxCell>
        <mxCell id="yZaqSAbRPUywFxxPNGX3-4" value="Facility worker Id, Facility worker Details" style="rounded=0;whiteSpace=wrap;html=1;fillColor=#E6FFCC;fontColor=#000000;strokeColor=#006EAF;textShadow=0;fontSize=33;fontStyle=1" parent="1" vertex="1">
          <mxGeometry x="4900" y="330" width="310" height="130" as="geometry" />
        </mxCell>
        <mxCell id="GYdrOh203If9b3M8gBBl-1" value="Business manager Notified by maim" style="rounded=0;whiteSpace=wrap;html=1;fontSize=33;fillColor=#FF8000;fontColor=#000000;strokeColor=#C73500;fontStyle=1" parent="1" vertex="1">
          <mxGeometry x="6760" y="448" width="300" height="150" as="geometry" />
        </mxCell>
        <mxCell id="GYdrOh203If9b3M8gBBl-2" value="Cartons Created In Bulk" style="rounded=0;whiteSpace=wrap;html=1;fontSize=33;fillColor=#FF8000;fontColor=#000000;strokeColor=#C73500;fontStyle=1" parent="1" vertex="1">
          <mxGeometry x="5839" y="299" width="300" height="150" as="geometry" />
        </mxCell>
        <mxCell id="GYdrOh203If9b3M8gBBl-3" value="Facility Manager" style="rounded=0;whiteSpace=wrap;html=1;fontSize=24;fillColor=#FFFF33;fontStyle=1" parent="1" vertex="1">
          <mxGeometry x="5310" y="290" width="140" height="159" as="geometry" />
        </mxCell>
        <mxCell id="GYdrOh203If9b3M8gBBl-4" value="Create Cartons Command" style="rounded=0;whiteSpace=wrap;html=1;fillColor=#1ba1e2;fontColor=#000000;strokeColor=#006EAF;textShadow=0;fontSize=33;fontStyle=1" parent="1" vertex="1">
          <mxGeometry x="5450" y="304.5" width="240" height="130" as="geometry" />
        </mxCell>
        <mxCell id="GYdrOh203If9b3M8gBBl-5" value="Carton Management System" style="whiteSpace=wrap;html=1;aspect=fixed;fillColor=#FF99FF;fontSize=22;fontStyle=1" parent="1" vertex="1">
          <mxGeometry x="5690" y="300" width="149" height="149" as="geometry" />
        </mxCell>
        <mxCell id="GYdrOh203If9b3M8gBBl-6" value="Carton Ids,&lt;div&gt;QR Codes&lt;/div&gt;" style="rounded=0;whiteSpace=wrap;html=1;fillColor=#E6FFCC;fontColor=#000000;strokeColor=#006EAF;textShadow=0;fontSize=33;fontStyle=1" parent="1" vertex="1">
          <mxGeometry x="6951" y="223.5" width="310" height="130" as="geometry" />
        </mxCell>
        <mxCell id="GYdrOh203If9b3M8gBBl-7" value="Carton creation Policy" style="whiteSpace=wrap;html=1;aspect=fixed;fillColor=#FF33FF;fontSize=24;fontStyle=1" parent="1" vertex="1">
          <mxGeometry x="6130" y="220" width="148" height="148" as="geometry" />
        </mxCell>
        <mxCell id="GYdrOh203If9b3M8gBBl-8" value="Create QR Codes Command" style="rounded=0;whiteSpace=wrap;html=1;fillColor=#1ba1e2;fontColor=#000000;strokeColor=#006EAF;textShadow=0;fontSize=33;fontStyle=1" parent="1" vertex="1">
          <mxGeometry x="6281" y="238" width="240" height="130" as="geometry" />
        </mxCell>
        <mxCell id="GYdrOh203If9b3M8gBBl-9" value="QR code creation System" style="whiteSpace=wrap;html=1;aspect=fixed;fillColor=#FF99FF;fontSize=22;fontStyle=1" parent="1" vertex="1">
          <mxGeometry x="6511" y="228.5" width="149" height="149" as="geometry" />
        </mxCell>
        <mxCell id="GYdrOh203If9b3M8gBBl-10" value="QR Codes created" style="rounded=0;whiteSpace=wrap;html=1;fontSize=33;fillColor=#FF8000;fontColor=#000000;strokeColor=#C73500;fontStyle=1" parent="1" vertex="1">
          <mxGeometry x="6660" y="220" width="300" height="150" as="geometry" />
        </mxCell>
        <mxCell id="GYdrOh203If9b3M8gBBl-11" value="Carton creation Policy" style="whiteSpace=wrap;html=1;aspect=fixed;fillColor=#FF33FF;fontSize=24;fontStyle=1" parent="1" vertex="1">
          <mxGeometry x="6120" y="390" width="148" height="148" as="geometry" />
        </mxCell>
        <mxCell id="GYdrOh203If9b3M8gBBl-12" value="Notify business manager Command" style="rounded=0;whiteSpace=wrap;html=1;fillColor=#1ba1e2;fontColor=#000000;strokeColor=#006EAF;textShadow=0;fontSize=33;fontStyle=1" parent="1" vertex="1">
          <mxGeometry x="6268" y="449" width="362" height="130" as="geometry" />
        </mxCell>
        <mxCell id="GYdrOh203If9b3M8gBBl-13" value="Email Notification System" style="whiteSpace=wrap;html=1;aspect=fixed;fillColor=#FF99FF;fontSize=22;fontStyle=1" parent="1" vertex="1">
          <mxGeometry x="6621" y="449" width="149" height="149" as="geometry" />
        </mxCell>
        <mxCell id="GYdrOh203If9b3M8gBBl-14" value="Carton Ids,&lt;div&gt;QR Codes&lt;/div&gt;" style="rounded=0;whiteSpace=wrap;html=1;fillColor=#E6FFCC;fontColor=#000000;strokeColor=#006EAF;textShadow=0;fontSize=33;fontStyle=1" parent="1" vertex="1">
          <mxGeometry x="7050" y="458" width="310" height="130" as="geometry" />
        </mxCell>
        <mxCell id="dVTwbZrmSRjOJORpPMfG-1" value="Carton Items Created in bulk" style="rounded=0;whiteSpace=wrap;html=1;fontSize=33;fillColor=#FF8000;fontColor=#000000;strokeColor=#C73500;fontStyle=1" parent="1" vertex="1">
          <mxGeometry x="9180" y="207" width="300" height="150" as="geometry" />
        </mxCell>
        <mxCell id="dVTwbZrmSRjOJORpPMfG-2" value="Facility Manager" style="rounded=0;whiteSpace=wrap;html=1;fontSize=24;fillColor=#FFFF33;fontStyle=1" parent="1" vertex="1">
          <mxGeometry x="7420" y="212" width="140" height="159" as="geometry" />
        </mxCell>
        <mxCell id="dVTwbZrmSRjOJORpPMfG-3" value="Product Query" style="rounded=0;whiteSpace=wrap;html=1;fillColor=#1ba1e2;fontColor=#000000;strokeColor=#006EAF;textShadow=0;fontSize=33;fontStyle=1" parent="1" vertex="1">
          <mxGeometry x="7560" y="226.5" width="240" height="130" as="geometry" />
        </mxCell>
        <mxCell id="dVTwbZrmSRjOJORpPMfG-4" value="&lt;span style=&quot;background-color: transparent; color: light-dark(rgb(0, 0, 0), rgb(255, 255, 255));&quot;&gt;Product Management System&lt;/span&gt;" style="whiteSpace=wrap;html=1;aspect=fixed;fillColor=#FF99FF;fontSize=22;fontStyle=1" parent="1" vertex="1">
          <mxGeometry x="7800" y="217" width="149" height="149" as="geometry" />
        </mxCell>
        <mxCell id="dVTwbZrmSRjOJORpPMfG-5" value="Product Retrieved" style="rounded=0;whiteSpace=wrap;html=1;fontSize=33;fillColor=#FF8000;fontColor=#000000;strokeColor=#C73500;fontStyle=1" parent="1" vertex="1">
          <mxGeometry x="7940" y="217" width="300" height="150" as="geometry" />
        </mxCell>
        <mxCell id="dVTwbZrmSRjOJORpPMfG-6" value="Product Id,&lt;br&gt;Product Details" style="rounded=0;whiteSpace=wrap;html=1;fillColor=#E6FFCC;fontColor=#000000;strokeColor=#006EAF;textShadow=0;fontSize=33;fontStyle=1" parent="1" vertex="1">
          <mxGeometry x="8240" y="227" width="240" height="130" as="geometry" />
        </mxCell>
        <mxCell id="dVTwbZrmSRjOJORpPMfG-7" value="Carton Items Create Command (Product, color, assortment, carton id)" style="rounded=0;whiteSpace=wrap;html=1;fillColor=#1ba1e2;fontColor=#000000;strokeColor=#006EAF;textShadow=0;fontSize=33;fontStyle=1" parent="1" vertex="1">
          <mxGeometry x="8620" y="217" width="450" height="130" as="geometry" />
        </mxCell>
        <mxCell id="dVTwbZrmSRjOJORpPMfG-8" value="Facility Manager" style="rounded=0;whiteSpace=wrap;html=1;fontSize=24;fillColor=#FFFF33;fontStyle=1" parent="1" vertex="1">
          <mxGeometry x="8500" y="207" width="140" height="159" as="geometry" />
        </mxCell>
        <mxCell id="dVTwbZrmSRjOJORpPMfG-9" value="Carton Management System" style="whiteSpace=wrap;html=1;aspect=fixed;fillColor=#FF99FF;fontSize=22;fontStyle=1" parent="1" vertex="1">
          <mxGeometry x="9031" y="207" width="149" height="149" as="geometry" />
        </mxCell>
        <mxCell id="dVTwbZrmSRjOJORpPMfG-10" value="Total items in variation table (color, variation), Total cartons" style="rounded=0;whiteSpace=wrap;html=1;fillColor=#E6FFCC;fontColor=#000000;strokeColor=#006EAF;textShadow=0;fontSize=33;fontStyle=1" parent="1" vertex="1">
          <mxGeometry x="9480" y="197.5" width="320" height="168" as="geometry" />
        </mxCell>
        <mxCell id="nlL0GrkSpIvlPVmUXDyP-1" value="Cartons located in bulk" style="rounded=0;whiteSpace=wrap;html=1;fontSize=33;fillColor=#FF8000;fontColor=#000000;strokeColor=#C73500;fontStyle=1" parent="1" vertex="1">
          <mxGeometry x="10590" y="202.5" width="300" height="150" as="geometry" />
        </mxCell>
        <mxCell id="nlL0GrkSpIvlPVmUXDyP-2" value="Facility Manager" style="rounded=0;whiteSpace=wrap;html=1;fontSize=24;fillColor=#FFFF33;fontStyle=1" parent="1" vertex="1">
          <mxGeometry x="9850" y="198" width="140" height="159" as="geometry" />
        </mxCell>
        <mxCell id="nlL0GrkSpIvlPVmUXDyP-3" value="Assign Location Command (Warehouse, Room, wall parameters, cartons)" style="rounded=0;whiteSpace=wrap;html=1;fillColor=#1ba1e2;fontColor=#000000;strokeColor=#006EAF;textShadow=0;fontSize=33;fontStyle=1" parent="1" vertex="1">
          <mxGeometry x="9980" y="212.5" width="460" height="130" as="geometry" />
        </mxCell>
        <mxCell id="nlL0GrkSpIvlPVmUXDyP-4" value="Warehouse Management System" style="whiteSpace=wrap;html=1;aspect=fixed;fillColor=#FF99FF;fontSize=22;fontStyle=1" parent="1" vertex="1">
          <mxGeometry x="10440" y="203" width="149" height="149" as="geometry" />
        </mxCell>
        <mxCell id="nlL0GrkSpIvlPVmUXDyP-5" value="Cartons Locations" style="rounded=0;whiteSpace=wrap;html=1;fillColor=#E6FFCC;fontColor=#000000;strokeColor=#006EAF;textShadow=0;fontSize=33;fontStyle=1" parent="1" vertex="1">
          <mxGeometry x="10890" y="212.5" width="240" height="130" as="geometry" />
        </mxCell>
        <mxCell id="hAZvDedld1GnB11k7LiE-1" value="Sale Recorded" style="rounded=0;whiteSpace=wrap;html=1;fontSize=33;fillColor=#FF8000;fontColor=#000000;strokeColor=#C73500;fontStyle=1" parent="1" vertex="1">
          <mxGeometry x="11750" y="460" width="300" height="150" as="geometry" />
        </mxCell>
        <mxCell id="hAZvDedld1GnB11k7LiE-2" value="Worker" style="rounded=0;whiteSpace=wrap;html=1;fontSize=24;fillColor=#FFFF33;fontStyle=1" parent="1" vertex="1">
          <mxGeometry x="11220" y="450" width="140" height="159" as="geometry" />
        </mxCell>
        <mxCell id="hAZvDedld1GnB11k7LiE-3" value="Record Sale Command" style="rounded=0;whiteSpace=wrap;html=1;fillColor=#1ba1e2;fontColor=#000000;strokeColor=#006EAF;textShadow=0;fontSize=33;fontStyle=1" parent="1" vertex="1">
          <mxGeometry x="11360" y="470" width="240" height="130" as="geometry" />
        </mxCell>
        <mxCell id="hAZvDedld1GnB11k7LiE-4" value="Order Management System" style="whiteSpace=wrap;html=1;aspect=fixed;fillColor=#FF99FF;fontSize=22;fontStyle=1" parent="1" vertex="1">
          <mxGeometry x="11600" y="460" width="149" height="149" as="geometry" />
        </mxCell>
        <mxCell id="hAZvDedld1GnB11k7LiE-5" value="Quantity available, Sale Details" style="rounded=0;whiteSpace=wrap;html=1;fillColor=#E6FFCC;fontColor=#000000;strokeColor=#006EAF;textShadow=0;fontSize=33;fontStyle=1" parent="1" vertex="1">
          <mxGeometry x="12040" y="470" width="240" height="130" as="geometry" />
        </mxCell>
        <mxCell id="hAZvDedld1GnB11k7LiE-6" value="Product finish&amp;nbsp; Policy" style="whiteSpace=wrap;html=1;aspect=fixed;fillColor=#FF33FF;fontSize=24;fontStyle=1" parent="1" vertex="1">
          <mxGeometry x="11880" y="610" width="148" height="148" as="geometry" />
        </mxCell>
        <mxCell id="hAZvDedld1GnB11k7LiE-7" value="Alert Managers command" style="rounded=0;whiteSpace=wrap;html=1;fillColor=#1ba1e2;fontColor=#000000;strokeColor=#006EAF;textShadow=0;fontSize=33;fontStyle=1" parent="1" vertex="1">
          <mxGeometry x="11880" y="754" width="240" height="130" as="geometry" />
        </mxCell>
        <mxCell id="hAZvDedld1GnB11k7LiE-8" value="Email notification System" style="whiteSpace=wrap;html=1;aspect=fixed;fillColor=#FF99FF;fontSize=22;fontStyle=1" parent="1" vertex="1">
          <mxGeometry x="12120" y="744.5" width="149" height="149" as="geometry" />
        </mxCell>
        <mxCell id="hAZvDedld1GnB11k7LiE-9" value="Managers notified of out of stock" style="rounded=0;whiteSpace=wrap;html=1;fontSize=33;fillColor=#FF8000;fontColor=#000000;strokeColor=#C73500;fontStyle=1" parent="1" vertex="1">
          <mxGeometry x="12269" y="744.5" width="300" height="150" as="geometry" />
        </mxCell>
        <mxCell id="hAZvDedld1GnB11k7LiE-10" value="Variation" style="rounded=0;whiteSpace=wrap;html=1;fillColor=#E6FFCC;fontColor=#000000;strokeColor=#006EAF;textShadow=0;fontSize=33;fontStyle=1" parent="1" vertex="1">
          <mxGeometry x="12569" y="754.5" width="240" height="130" as="geometry" />
        </mxCell>
        <mxCell id="hAZvDedld1GnB11k7LiE-11" value="Product Retrieval Policy" style="whiteSpace=wrap;html=1;aspect=fixed;fillColor=#FF33FF;fontSize=24;fontStyle=1" parent="1" vertex="1">
          <mxGeometry x="11864.5" y="312" width="148" height="148" as="geometry" />
        </mxCell>
        <mxCell id="hAZvDedld1GnB11k7LiE-12" value="Product locate command" style="rounded=0;whiteSpace=wrap;html=1;fillColor=#1ba1e2;fontColor=#000000;strokeColor=#006EAF;textShadow=0;fontSize=33;fontStyle=1" parent="1" vertex="1">
          <mxGeometry x="11854.5" y="182" width="240" height="130" as="geometry" />
        </mxCell>
        <mxCell id="hAZvDedld1GnB11k7LiE-13" value="Product Management System" style="whiteSpace=wrap;html=1;aspect=fixed;fillColor=#FF99FF;fontSize=22;fontStyle=1" parent="1" vertex="1">
          <mxGeometry x="12085.5" y="172.5" width="149" height="149" as="geometry" />
        </mxCell>
        <mxCell id="hAZvDedld1GnB11k7LiE-14" value="Cartons locations with specified product variation" style="rounded=0;whiteSpace=wrap;html=1;fillColor=#E6FFCC;fontColor=#000000;strokeColor=#006EAF;textShadow=0;fontSize=33;fontStyle=1" parent="1" vertex="1">
          <mxGeometry x="13364.5" y="182" width="300" height="130" as="geometry" />
        </mxCell>
        <mxCell id="hAZvDedld1GnB11k7LiE-15" value="Product added to retrieval list" style="rounded=0;whiteSpace=wrap;html=1;fontSize=33;fillColor=#FF8000;fontColor=#000000;strokeColor=#C73500;fontStyle=1" parent="1" vertex="1">
          <mxGeometry x="12234.5" y="171.5" width="300" height="150" as="geometry" />
        </mxCell>
        <mxCell id="hAZvDedld1GnB11k7LiE-16" value="Product locate Policy" style="whiteSpace=wrap;html=1;aspect=fixed;fillColor=#FF33FF;fontSize=24;fontStyle=1" parent="1" vertex="1">
          <mxGeometry x="12534.5" y="171.5" width="148" height="148" as="geometry" />
        </mxCell>
        <mxCell id="hAZvDedld1GnB11k7LiE-17" value="Product Locate Command" style="rounded=0;whiteSpace=wrap;html=1;fillColor=#1ba1e2;fontColor=#000000;strokeColor=#006EAF;textShadow=0;fontSize=33;fontStyle=1" parent="1" vertex="1">
          <mxGeometry x="12682.5" y="182" width="240" height="130" as="geometry" />
        </mxCell>
        <mxCell id="hAZvDedld1GnB11k7LiE-18" value="Carton Management System" style="whiteSpace=wrap;html=1;aspect=fixed;fillColor=#FF99FF;fontSize=22;fontStyle=1" parent="1" vertex="1">
          <mxGeometry x="12922.5" y="170.5" width="149" height="149" as="geometry" />
        </mxCell>
        <mxCell id="hAZvDedld1GnB11k7LiE-19" value="Cartons located for items to retrieve" style="rounded=0;whiteSpace=wrap;html=1;fontSize=33;fillColor=#FF8000;fontColor=#000000;strokeColor=#C73500;fontStyle=1" parent="1" vertex="1">
          <mxGeometry x="13071.5" y="170" width="300" height="150" as="geometry" />
        </mxCell>
        <mxCell id="gkbzRgDe3YTi24nkSvRU-1" value="Carton item retrieved" style="rounded=0;whiteSpace=wrap;html=1;fontSize=33;fillColor=#FF8000;fontColor=#000000;strokeColor=#C73500;fontStyle=1" parent="1" vertex="1">
          <mxGeometry x="15149" y="506.5" width="300" height="150" as="geometry" />
        </mxCell>
        <mxCell id="gkbzRgDe3YTi24nkSvRU-2" value="Carton opened to retrieve carton Item" style="rounded=0;whiteSpace=wrap;html=1;fontSize=33;fillColor=#FF8000;fontColor=#000000;strokeColor=#C73500;fontStyle=1" parent="1" vertex="1">
          <mxGeometry x="14100" y="506.5" width="300" height="150" as="geometry" />
        </mxCell>
        <mxCell id="gkbzRgDe3YTi24nkSvRU-3" value="Carton closed &amp;amp;&amp;nbsp; relocated" style="rounded=0;whiteSpace=wrap;html=1;fontSize=33;fillColor=#FF8000;fontColor=#000000;strokeColor=#C73500;fontStyle=1" parent="1" vertex="1">
          <mxGeometry x="16310" y="492" width="300" height="150" as="geometry" />
        </mxCell>
        <mxCell id="gkbzRgDe3YTi24nkSvRU-4" value="Defected Item recorded" style="rounded=0;whiteSpace=wrap;html=1;fontSize=33;fillColor=#FF8000;fontColor=#000000;strokeColor=#C73500;fontStyle=1" parent="1" vertex="1">
          <mxGeometry x="15889" y="790.5" width="300" height="150" as="geometry" />
        </mxCell>
        <mxCell id="gkbzRgDe3YTi24nkSvRU-5" value="Worker" style="rounded=0;whiteSpace=wrap;html=1;fontSize=24;fillColor=#FFFF33;fontStyle=1" parent="1" vertex="1">
          <mxGeometry x="13580" y="497.5" width="140" height="159" as="geometry" />
        </mxCell>
        <mxCell id="gkbzRgDe3YTi24nkSvRU-6" value="Open carton Command" style="rounded=0;whiteSpace=wrap;html=1;fillColor=#1ba1e2;fontColor=#000000;strokeColor=#006EAF;textShadow=0;fontSize=33;fontStyle=1" parent="1" vertex="1">
          <mxGeometry x="13720" y="512" width="240" height="130" as="geometry" />
        </mxCell>
        <mxCell id="gkbzRgDe3YTi24nkSvRU-7" value="Carton Management System" style="whiteSpace=wrap;html=1;aspect=fixed;fillColor=#FF99FF;fontSize=22;fontStyle=1" parent="1" vertex="1">
          <mxGeometry x="13960" y="507.5" width="149" height="149" as="geometry" />
        </mxCell>
        <mxCell id="gkbzRgDe3YTi24nkSvRU-8" value="Worker" style="rounded=0;whiteSpace=wrap;html=1;fontSize=24;fillColor=#FFFF33;fontStyle=1" parent="1" vertex="1">
          <mxGeometry x="14630" y="507.5" width="140" height="159" as="geometry" />
        </mxCell>
        <mxCell id="gkbzRgDe3YTi24nkSvRU-9" value="Remove item from carton Command" style="rounded=0;whiteSpace=wrap;html=1;fillColor=#1ba1e2;fontColor=#000000;strokeColor=#006EAF;textShadow=0;fontSize=33;fontStyle=1" parent="1" vertex="1">
          <mxGeometry x="14760" y="522" width="240" height="130" as="geometry" />
        </mxCell>
        <mxCell id="gkbzRgDe3YTi24nkSvRU-10" value="Carton Management System" style="whiteSpace=wrap;html=1;aspect=fixed;fillColor=#FF99FF;fontSize=22;fontStyle=1" parent="1" vertex="1">
          <mxGeometry x="15000" y="507.5" width="149" height="149" as="geometry" />
        </mxCell>
        <mxCell id="gkbzRgDe3YTi24nkSvRU-11" value="Worker" style="rounded=0;whiteSpace=wrap;html=1;fontSize=24;fillColor=#FFFF33;fontStyle=1" parent="1" vertex="1">
          <mxGeometry x="15530" y="642" width="140" height="159" as="geometry" />
        </mxCell>
        <mxCell id="gkbzRgDe3YTi24nkSvRU-12" value="Record defected Item Command" style="rounded=0;whiteSpace=wrap;html=1;fillColor=#1ba1e2;fontColor=#000000;strokeColor=#006EAF;textShadow=0;fontSize=33;fontStyle=1" parent="1" vertex="1">
          <mxGeometry x="15510" y="801" width="240" height="130" as="geometry" />
        </mxCell>
        <mxCell id="gkbzRgDe3YTi24nkSvRU-13" value="Carton location, carton items" style="rounded=0;whiteSpace=wrap;html=1;fillColor=#E6FFCC;fontColor=#000000;strokeColor=#006EAF;textShadow=0;fontSize=33;fontStyle=1" parent="1" vertex="1">
          <mxGeometry x="14390" y="516.5" width="240" height="130" as="geometry" />
        </mxCell>
        <mxCell id="gkbzRgDe3YTi24nkSvRU-14" value="Modified carton details" style="rounded=0;whiteSpace=wrap;html=1;fillColor=#E6FFCC;fontColor=#000000;strokeColor=#006EAF;textShadow=0;fontSize=33;fontStyle=1" parent="1" vertex="1">
          <mxGeometry x="15449" y="512" width="240" height="130" as="geometry" />
        </mxCell>
        <mxCell id="gkbzRgDe3YTi24nkSvRU-15" value="Product Management System" style="whiteSpace=wrap;html=1;aspect=fixed;fillColor=#FF99FF;fontSize=22;fontStyle=1" parent="1" vertex="1">
          <mxGeometry x="15740" y="791.5" width="149" height="149" as="geometry" />
        </mxCell>
        <mxCell id="gkbzRgDe3YTi24nkSvRU-16" value="Quantity available" style="rounded=0;whiteSpace=wrap;html=1;fillColor=#E6FFCC;fontColor=#000000;strokeColor=#006EAF;textShadow=0;fontSize=33;fontStyle=1" parent="1" vertex="1">
          <mxGeometry x="16190" y="801" width="240" height="130" as="geometry" />
        </mxCell>
        <mxCell id="gkbzRgDe3YTi24nkSvRU-17" value="Product finish&amp;nbsp; Policy" style="whiteSpace=wrap;html=1;aspect=fixed;fillColor=#FF33FF;fontSize=24;fontStyle=1" parent="1" vertex="1">
          <mxGeometry x="16030" y="941" width="148" height="148" as="geometry" />
        </mxCell>
        <mxCell id="gkbzRgDe3YTi24nkSvRU-18" value="Alert Managers command" style="rounded=0;whiteSpace=wrap;html=1;fillColor=#1ba1e2;fontColor=#000000;strokeColor=#006EAF;textShadow=0;fontSize=33;fontStyle=1" parent="1" vertex="1">
          <mxGeometry x="16030" y="1085" width="240" height="130" as="geometry" />
        </mxCell>
        <mxCell id="gkbzRgDe3YTi24nkSvRU-19" value="Email notification System" style="whiteSpace=wrap;html=1;aspect=fixed;fillColor=#FF99FF;fontSize=22;fontStyle=1" parent="1" vertex="1">
          <mxGeometry x="16270" y="1075.5" width="149" height="149" as="geometry" />
        </mxCell>
        <mxCell id="gkbzRgDe3YTi24nkSvRU-20" value="Managers notified of out of stock" style="rounded=0;whiteSpace=wrap;html=1;fontSize=33;fillColor=#FF8000;fontColor=#000000;strokeColor=#C73500;fontStyle=1" parent="1" vertex="1">
          <mxGeometry x="16419" y="1075.5" width="300" height="150" as="geometry" />
        </mxCell>
        <mxCell id="gkbzRgDe3YTi24nkSvRU-21" value="Variation" style="rounded=0;whiteSpace=wrap;html=1;fillColor=#E6FFCC;fontColor=#000000;strokeColor=#006EAF;textShadow=0;fontSize=33;fontStyle=1" parent="1" vertex="1">
          <mxGeometry x="16719" y="1085.5" width="240" height="130" as="geometry" />
        </mxCell>
        <mxCell id="gkbzRgDe3YTi24nkSvRU-22" value="Worker" style="rounded=0;whiteSpace=wrap;html=1;fontSize=24;fillColor=#FFFF33;fontStyle=1" parent="1" vertex="1">
          <mxGeometry x="15780" y="483" width="140" height="159" as="geometry" />
        </mxCell>
        <mxCell id="gkbzRgDe3YTi24nkSvRU-23" value="Close and relocate carton" style="rounded=0;whiteSpace=wrap;html=1;fillColor=#1ba1e2;fontColor=#000000;strokeColor=#006EAF;textShadow=0;fontSize=33;fontStyle=1" parent="1" vertex="1">
          <mxGeometry x="15919" y="497.5" width="240" height="130" as="geometry" />
        </mxCell>
        <mxCell id="gkbzRgDe3YTi24nkSvRU-24" value="Product Management System" style="whiteSpace=wrap;html=1;aspect=fixed;fillColor=#FF99FF;fontSize=22;fontStyle=1" parent="1" vertex="1">
          <mxGeometry x="16159" y="493" width="149" height="149" as="geometry" />
        </mxCell>
        <mxCell id="gkbzRgDe3YTi24nkSvRU-25" value="Items Retrieval Policy" style="whiteSpace=wrap;html=1;aspect=fixed;fillColor=#FF33FF;fontSize=24;fontStyle=1" parent="1" vertex="1">
          <mxGeometry x="16440" y="349.5" width="148" height="148" as="geometry" />
        </mxCell>
        <mxCell id="gkbzRgDe3YTi24nkSvRU-26" value="Change retrieval item status to retrieved" style="rounded=0;whiteSpace=wrap;html=1;fillColor=#1ba1e2;fontColor=#000000;strokeColor=#006EAF;textShadow=0;fontSize=33;fontStyle=1" parent="1" vertex="1">
          <mxGeometry x="16399" y="226.5" width="320" height="130" as="geometry" />
        </mxCell>
        <mxCell id="gkbzRgDe3YTi24nkSvRU-27" value="Order Management System" style="whiteSpace=wrap;html=1;aspect=fixed;fillColor=#FF99FF;fontSize=22;fontStyle=1" parent="1" vertex="1">
          <mxGeometry x="16710" y="217" width="149" height="149" as="geometry" />
        </mxCell>
        <mxCell id="gkbzRgDe3YTi24nkSvRU-28" value="Order Item status changed to &quot;To send&quot;" style="rounded=0;whiteSpace=wrap;html=1;fontSize=33;fillColor=#FF8000;fontColor=#000000;strokeColor=#C73500;fontStyle=1" parent="1" vertex="1">
          <mxGeometry x="16859" y="217" width="300" height="150" as="geometry" />
        </mxCell>
        <mxCell id="VuxEnZ_1rj6lblsDJrSs-1" value="Order Item Marked as sent" style="rounded=0;whiteSpace=wrap;html=1;fontSize=33;fillColor=#FF8000;fontColor=#000000;strokeColor=#C73500;fontStyle=1" parent="1" vertex="1">
          <mxGeometry x="17770" y="542" width="300" height="150" as="geometry" />
        </mxCell>
        <mxCell id="VuxEnZ_1rj6lblsDJrSs-2" value="Worker" style="rounded=0;whiteSpace=wrap;html=1;fontSize=24;fillColor=#FFFF33;fontStyle=1" parent="1" vertex="1">
          <mxGeometry x="17260" y="538" width="140" height="159" as="geometry" />
        </mxCell>
        <mxCell id="VuxEnZ_1rj6lblsDJrSs-3" value="Mark item as sent Command" style="rounded=0;whiteSpace=wrap;html=1;fillColor=#1ba1e2;fontColor=#000000;strokeColor=#006EAF;textShadow=0;fontSize=33;fontStyle=1" parent="1" vertex="1">
          <mxGeometry x="17390" y="548" width="240" height="130" as="geometry" />
        </mxCell>
        <mxCell id="VuxEnZ_1rj6lblsDJrSs-4" value="Order Management System" style="whiteSpace=wrap;html=1;aspect=fixed;fillColor=#FF99FF;fontSize=22;fontStyle=1" parent="1" vertex="1">
          <mxGeometry x="17630" y="543" width="149" height="149" as="geometry" />
        </mxCell>
        <mxCell id="VuxEnZ_1rj6lblsDJrSs-5" value="Order details" style="rounded=0;whiteSpace=wrap;html=1;fillColor=#E6FFCC;fontColor=#000000;strokeColor=#006EAF;textShadow=0;fontSize=33;fontStyle=1" parent="1" vertex="1">
          <mxGeometry x="18050" y="552" width="240" height="130" as="geometry" />
        </mxCell>
      </root>
    </mxGraphModel>
  </diagram>
  <diagram id="o_tEPKCoL8Zh_5SyvJXT" name="Focus">
    <mxGraphModel dx="6160" dy="1682" grid="1" gridSize="10" guides="1" tooltips="1" connect="1" arrows="1" fold="1" page="1" pageScale="1" pageWidth="827" pageHeight="1169" math="0" shadow="0">
      <root>
        <mxCell id="0" />
        <mxCell id="1" parent="0" />
        <mxCell id="IIugzgnDGPKrzc1w0g_--2" value="Command" style="rounded=0;whiteSpace=wrap;html=1;fillColor=#1ba1e2;fontColor=#000000;strokeColor=#006EAF;textShadow=0;fontSize=33;fontStyle=1" parent="1" vertex="1">
          <mxGeometry x="-2721" y="872" width="240" height="130" as="geometry" />
        </mxCell>
        <mxCell id="IIugzgnDGPKrzc1w0g_--3" value="Actor" style="rounded=0;whiteSpace=wrap;html=1;fontSize=24;fillColor=#FFFF33;fontStyle=1" parent="1" vertex="1">
          <mxGeometry x="-2470" y="871" width="140" height="159" as="geometry" />
        </mxCell>
        <mxCell id="IIugzgnDGPKrzc1w0g_--4" value="System" style="whiteSpace=wrap;html=1;aspect=fixed;fillColor=#FF99FF;fontSize=22;fontStyle=1" parent="1" vertex="1">
          <mxGeometry x="-2310" y="871" width="149" height="149" as="geometry" />
        </mxCell>
        <mxCell id="IIugzgnDGPKrzc1w0g_--5" value="Policy" style="whiteSpace=wrap;html=1;aspect=fixed;fillColor=#FF33FF;fontSize=24;fontStyle=1" parent="1" vertex="1">
          <mxGeometry x="-2130" y="872" width="148" height="148" as="geometry" />
        </mxCell>
        <mxCell id="IIugzgnDGPKrzc1w0g_--6" value="Read Model" style="rounded=0;whiteSpace=wrap;html=1;fillColor=#E6FFCC;fontColor=#000000;strokeColor=#006EAF;textShadow=0;fontSize=33;fontStyle=1" parent="1" vertex="1">
          <mxGeometry x="-1930" y="860" width="240" height="130" as="geometry" />
        </mxCell>
        <mxCell id="IIugzgnDGPKrzc1w0g_--7" value="Hot spot" style="strokeWidth=2;html=1;shape=mxgraph.flowchart.terminator;whiteSpace=wrap;fontSize=33;fillColor=#e51400;fontColor=#000000;strokeColor=#B20000;fontStyle=1" parent="1" vertex="1">
          <mxGeometry x="-1660" y="870" width="220" height="110" as="geometry" />
        </mxCell>
        <mxCell id="qg9teIAynfmNU3mxgEaS-1" value="Domain Event" style="rounded=0;whiteSpace=wrap;html=1;fontSize=33;fillColor=#FF8000;fontColor=#000000;strokeColor=#C73500;fontStyle=1" vertex="1" parent="1">
          <mxGeometry x="-3070" y="860" width="300" height="150" as="geometry" />
        </mxCell>
      </root>
    </mxGraphModel>
  </diagram>
  <diagram id="00TWHMpzFQheTS5EjTRN" name="To Model">
    <mxGraphModel dx="3169" dy="1869" grid="1" gridSize="10" guides="1" tooltips="1" connect="1" arrows="1" fold="1" page="1" pageScale="1" pageWidth="827" pageHeight="1169" math="0" shadow="0">
      <root>
        <mxCell id="0" />
        <mxCell id="1" parent="0" />
        <mxCell id="aXjpbLiNl2uAXXeXhfh4-12" value="Record return" style="rounded=0;whiteSpace=wrap;html=1;fontSize=33;fillColor=#FF8000;fontColor=#000000;strokeColor=#C73500;fontStyle=1" vertex="1" parent="1">
          <mxGeometry x="21" y="259" width="300" height="150" as="geometry" />
        </mxCell>
        <mxCell id="aXjpbLiNl2uAXXeXhfh4-13" value="Order Item returned" style="rounded=0;whiteSpace=wrap;html=1;fontSize=33;fillColor=#FF8000;fontColor=#000000;strokeColor=#C73500;fontStyle=1" vertex="1" parent="1">
          <mxGeometry x="21" y="449" width="300" height="150" as="geometry" />
        </mxCell>
        <mxCell id="aXjpbLiNl2uAXXeXhfh4-14" value="Record defected return" style="rounded=0;whiteSpace=wrap;html=1;fontSize=33;fillColor=#FF8000;fontColor=#000000;strokeColor=#C73500;fontStyle=1" vertex="1" parent="1">
          <mxGeometry x="341" y="449" width="300" height="150" as="geometry" />
        </mxCell>
        <mxCell id="aXjpbLiNl2uAXXeXhfh4-18" value="Stock returned item in carton" style="rounded=0;whiteSpace=wrap;html=1;fontSize=33;fillColor=#FF8000;fontColor=#000000;strokeColor=#C73500;fontStyle=1" vertex="1" parent="1">
          <mxGeometry x="21" y="646" width="300" height="150" as="geometry" />
        </mxCell>
        <mxCell id="vnnNz5qgEl7q7dhcjg5S-1" value="Facility Worker modified to facility manager" style="rounded=0;whiteSpace=wrap;html=1;fontSize=33;fillColor=#FF8000;fontColor=#000000;strokeColor=#C73500;fontStyle=1" vertex="1" parent="1">
          <mxGeometry x="890" y="20" width="300" height="150" as="geometry" />
        </mxCell>
        <mxCell id="vnnNz5qgEl7q7dhcjg5S-2" value="Facility manager modified to upper role" style="rounded=0;whiteSpace=wrap;html=1;fontSize=33;fillColor=#FF8000;fontColor=#000000;strokeColor=#C73500;fontStyle=1" vertex="1" parent="1">
          <mxGeometry x="900" y="250" width="300" height="150" as="geometry" />
        </mxCell>
        <mxCell id="vDlPabkOlcxnf31RXUR2-1" value="Product Created" style="rounded=0;whiteSpace=wrap;html=1;fontSize=33;fillColor=#FF8000;fontColor=#000000;strokeColor=#C73500;fontStyle=1" vertex="1" parent="1">
          <mxGeometry x="1710" y="280" width="300" height="150" as="geometry" />
        </mxCell>
        <mxCell id="vDlPabkOlcxnf31RXUR2-2" value="Variations&lt;span style=&quot;background-color: transparent; color: light-dark(rgb(0, 0, 0), rgb(255, 255, 255));&quot;&gt;&amp;nbsp;Created&lt;/span&gt;" style="rounded=0;whiteSpace=wrap;html=1;fontSize=33;fillColor=#FF8000;fontColor=#000000;strokeColor=#C73500;fontStyle=1" vertex="1" parent="1">
          <mxGeometry x="2030" y="280" width="300" height="150" as="geometry" />
        </mxCell>
        <mxCell id="vDlPabkOlcxnf31RXUR2-3" value="Product Add Color" style="rounded=0;whiteSpace=wrap;html=1;fontSize=33;fillColor=#FF8000;fontColor=#000000;strokeColor=#C73500;fontStyle=1" vertex="1" parent="1">
          <mxGeometry x="1710" y="460" width="300" height="150" as="geometry" />
        </mxCell>
        <mxCell id="vDlPabkOlcxnf31RXUR2-4" value="Product Add Size" style="rounded=0;whiteSpace=wrap;html=1;fontSize=33;fillColor=#FF8000;fontColor=#000000;strokeColor=#C73500;fontStyle=1" vertex="1" parent="1">
          <mxGeometry x="1710" y="630" width="300" height="150" as="geometry" />
        </mxCell>
        <mxCell id="vDlPabkOlcxnf31RXUR2-5" value="Variations&lt;span style=&quot;background-color: transparent; color: light-dark(rgb(0, 0, 0), rgb(255, 255, 255));&quot;&gt;&amp;nbsp;Remove for a specific color size combination&lt;/span&gt;" style="rounded=0;whiteSpace=wrap;html=1;fontSize=33;fillColor=#FF8000;fontColor=#000000;strokeColor=#C73500;fontStyle=1" vertex="1" parent="1">
          <mxGeometry x="2030" y="470" width="300" height="150" as="geometry" />
        </mxCell>
        <mxCell id="vDlPabkOlcxnf31RXUR2-6" value="Variation change price for a color" style="rounded=0;whiteSpace=wrap;html=1;fontSize=33;fillColor=#FF8000;fontColor=#000000;strokeColor=#C73500;fontStyle=1" vertex="1" parent="1">
          <mxGeometry x="2055" y="660" width="300" height="150" as="geometry" />
        </mxCell>
        <mxCell id="vDlPabkOlcxnf31RXUR2-7" value="Product Modify assortment for a color" style="rounded=0;whiteSpace=wrap;html=1;fontSize=33;fillColor=#FF8000;fontColor=#000000;strokeColor=#C73500;fontStyle=1" vertex="1" parent="1">
          <mxGeometry x="1710" y="110" width="300" height="150" as="geometry" />
        </mxCell>
        <mxCell id="vDlPabkOlcxnf31RXUR2-8" value="Product Modify sizes for a color" style="rounded=0;whiteSpace=wrap;html=1;fontSize=33;fillColor=#FF8000;fontColor=#000000;strokeColor=#C73500;fontStyle=1" vertex="1" parent="1">
          <mxGeometry x="1700" y="810" width="300" height="150" as="geometry" />
        </mxCell>
        <mxCell id="vDlPabkOlcxnf31RXUR2-9" value="Variation change quantity received" style="rounded=0;whiteSpace=wrap;html=1;fontSize=33;fillColor=#FF8000;fontColor=#000000;strokeColor=#C73500;fontStyle=1" vertex="1" parent="1">
          <mxGeometry x="2040" y="850" width="300" height="150" as="geometry" />
        </mxCell>
      </root>
    </mxGraphModel>
  </diagram>
  <diagram name="Legend" id="FbMma-QXbxaZruIZIiHM">
    <mxGraphModel dx="5200" dy="1324" grid="1" gridSize="10" guides="1" tooltips="1" connect="1" arrows="1" fold="1" page="1" pageScale="1" pageWidth="827" pageHeight="1169" math="0" shadow="0">
      <root>
        <mxCell id="ixCInmjgQoDIgkokb3ZK-0" />
        <mxCell id="ixCInmjgQoDIgkokb3ZK-1" parent="ixCInmjgQoDIgkokb3ZK-0" />
        <mxCell id="ixCInmjgQoDIgkokb3ZK-2" value="Command" style="rounded=0;whiteSpace=wrap;html=1;fillColor=#1ba1e2;fontColor=#000000;strokeColor=#006EAF;textShadow=0;fontSize=33;fontStyle=1" vertex="1" parent="ixCInmjgQoDIgkokb3ZK-1">
          <mxGeometry x="-2730" y="871" width="240" height="130" as="geometry" />
        </mxCell>
        <mxCell id="ixCInmjgQoDIgkokb3ZK-3" value="Actor" style="rounded=0;whiteSpace=wrap;html=1;fontSize=24;fillColor=#FFFF33;fontStyle=1" vertex="1" parent="ixCInmjgQoDIgkokb3ZK-1">
          <mxGeometry x="-2470" y="871" width="140" height="159" as="geometry" />
        </mxCell>
        <mxCell id="ixCInmjgQoDIgkokb3ZK-4" value="System" style="whiteSpace=wrap;html=1;aspect=fixed;fillColor=#FF99FF;fontSize=22;fontStyle=1" vertex="1" parent="ixCInmjgQoDIgkokb3ZK-1">
          <mxGeometry x="-2310" y="871" width="149" height="149" as="geometry" />
        </mxCell>
        <mxCell id="ixCInmjgQoDIgkokb3ZK-5" value="Policy" style="whiteSpace=wrap;html=1;aspect=fixed;fillColor=#FF33FF;fontSize=24;fontStyle=1" vertex="1" parent="ixCInmjgQoDIgkokb3ZK-1">
          <mxGeometry x="-2130" y="872" width="148" height="148" as="geometry" />
        </mxCell>
        <mxCell id="ixCInmjgQoDIgkokb3ZK-6" value="Read Model" style="rounded=0;whiteSpace=wrap;html=1;fillColor=#E6FFCC;fontColor=#000000;strokeColor=#006EAF;textShadow=0;fontSize=33;fontStyle=1" vertex="1" parent="ixCInmjgQoDIgkokb3ZK-1">
          <mxGeometry x="-1930" y="860" width="240" height="130" as="geometry" />
        </mxCell>
        <mxCell id="ixCInmjgQoDIgkokb3ZK-7" value="Hot spot" style="strokeWidth=2;html=1;shape=mxgraph.flowchart.terminator;whiteSpace=wrap;fontSize=33;fillColor=#e51400;fontColor=#000000;strokeColor=#B20000;fontStyle=1" vertex="1" parent="ixCInmjgQoDIgkokb3ZK-1">
          <mxGeometry x="-1660" y="870" width="220" height="110" as="geometry" />
        </mxCell>
        <mxCell id="ixCInmjgQoDIgkokb3ZK-8" value="Domain Event" style="rounded=0;whiteSpace=wrap;html=1;fontSize=33;fillColor=#FF8000;fontColor=#000000;strokeColor=#C73500;fontStyle=1" vertex="1" parent="ixCInmjgQoDIgkokb3ZK-1">
          <mxGeometry x="-3070" y="860" width="300" height="150" as="geometry" />
        </mxCell>
      </root>
    </mxGraphModel>
  </diagram>
</mxfile>
